<mxfile host="Electron" agent="Mozilla/5.0 (Windows NT 10.0; Win64; x64) AppleWebKit/537.36 (KHTML, like Gecko) draw.io/25.0.1 Chrome/128.0.6613.186 Electron/32.2.6 Safari/537.36" version="25.0.1">
  <diagram name="Page-1" id="6JgxhJqDr_fpfRABxxTT">
    <mxGraphModel dx="1185" dy="1647" grid="1" gridSize="10" guides="1" tooltips="1" connect="1" arrows="1" fold="1" page="1" pageScale="1" pageWidth="827" pageHeight="1169" math="0" shadow="0">
      <root>
        <mxCell id="0" />
        <mxCell id="1" parent="0" />
        <mxCell id="36SKS3vKtIYSdZwVMadg-1" value="&lt;font style=&quot;font-size: 22px;&quot;&gt;Telco Cloud (RAN / Core )&amp;nbsp;&lt;/font&gt;&lt;div&gt;&lt;font style=&quot;font-size: 22px;&quot;&gt;Web&amp;nbsp;&lt;/font&gt;&lt;/div&gt;&lt;div&gt;&lt;font style=&quot;font-size: 22px;&quot;&gt;App&lt;/font&gt;&lt;/div&gt;" style="rounded=1;whiteSpace=wrap;html=1;" vertex="1" parent="1">
          <mxGeometry x="160" y="-850" width="520" height="140" as="geometry" />
        </mxCell>
        <mxCell id="36SKS3vKtIYSdZwVMadg-2" value="" style="endArrow=classic;html=1;rounded=0;entryX=0.5;entryY=1;entryDx=0;entryDy=0;" edge="1" parent="1" target="36SKS3vKtIYSdZwVMadg-1">
          <mxGeometry width="50" height="50" relative="1" as="geometry">
            <mxPoint x="420" y="-610" as="sourcePoint" />
            <mxPoint x="490" y="-690" as="targetPoint" />
          </mxGeometry>
        </mxCell>
        <mxCell id="36SKS3vKtIYSdZwVMadg-3" value="HW (DATA Center)" style="rounded=1;whiteSpace=wrap;html=1;" vertex="1" parent="1">
          <mxGeometry x="360" y="-614" width="120" height="60" as="geometry" />
        </mxCell>
        <mxCell id="36SKS3vKtIYSdZwVMadg-4" value="" style="sketch=0;outlineConnect=0;fontColor=#232F3E;gradientColor=none;fillColor=#232F3D;strokeColor=none;dashed=0;verticalLabelPosition=bottom;verticalAlign=top;align=center;html=1;fontSize=12;fontStyle=0;aspect=fixed;pointerEvents=1;shape=mxgraph.aws4.question;" vertex="1" parent="1">
          <mxGeometry x="650" y="-692" width="41" height="78" as="geometry" />
        </mxCell>
        <mxCell id="36SKS3vKtIYSdZwVMadg-23" style="edgeStyle=orthogonalEdgeStyle;rounded=0;orthogonalLoop=1;jettySize=auto;html=1;" edge="1" parent="1" source="36SKS3vKtIYSdZwVMadg-5">
          <mxGeometry relative="1" as="geometry">
            <mxPoint x="180" y="-594" as="targetPoint" />
          </mxGeometry>
        </mxCell>
        <mxCell id="36SKS3vKtIYSdZwVMadg-5" value="SW Compan" style="rhombus;whiteSpace=wrap;html=1;" vertex="1" parent="1">
          <mxGeometry x="40" y="-634" width="80" height="80" as="geometry" />
        </mxCell>
        <mxCell id="36SKS3vKtIYSdZwVMadg-6" value="IT&amp;nbsp;" style="rhombus;whiteSpace=wrap;html=1;" vertex="1" parent="1">
          <mxGeometry x="40" y="-530" width="80" height="80" as="geometry" />
        </mxCell>
        <mxCell id="36SKS3vKtIYSdZwVMadg-7" value="Actor" style="shape=umlActor;verticalLabelPosition=bottom;verticalAlign=top;html=1;outlineConnect=0;" vertex="1" parent="1">
          <mxGeometry x="250" y="-674" width="30" height="60" as="geometry" />
        </mxCell>
        <mxCell id="36SKS3vKtIYSdZwVMadg-8" value="Actor" style="shape=umlActor;verticalLabelPosition=bottom;verticalAlign=top;html=1;outlineConnect=0;" vertex="1" parent="1">
          <mxGeometry x="250" y="-550" width="30" height="60" as="geometry" />
        </mxCell>
        <mxCell id="36SKS3vKtIYSdZwVMadg-9" value="Actor" style="shape=umlActor;verticalLabelPosition=bottom;verticalAlign=top;html=1;outlineConnect=0;" vertex="1" parent="1">
          <mxGeometry x="250" y="-430" width="30" height="60" as="geometry" />
        </mxCell>
        <mxCell id="36SKS3vKtIYSdZwVMadg-10" value="Actor" style="shape=umlActor;verticalLabelPosition=bottom;verticalAlign=top;html=1;outlineConnect=0;" vertex="1" parent="1">
          <mxGeometry x="384" y="-500" width="30" height="60" as="geometry" />
        </mxCell>
        <mxCell id="36SKS3vKtIYSdZwVMadg-51" style="edgeStyle=orthogonalEdgeStyle;rounded=0;orthogonalLoop=1;jettySize=auto;html=1;" edge="1" parent="1" source="36SKS3vKtIYSdZwVMadg-11" target="36SKS3vKtIYSdZwVMadg-38">
          <mxGeometry relative="1" as="geometry" />
        </mxCell>
        <mxCell id="36SKS3vKtIYSdZwVMadg-52" style="edgeStyle=orthogonalEdgeStyle;rounded=0;orthogonalLoop=1;jettySize=auto;html=1;" edge="1" parent="1" source="36SKS3vKtIYSdZwVMadg-11" target="36SKS3vKtIYSdZwVMadg-17">
          <mxGeometry relative="1" as="geometry" />
        </mxCell>
        <mxCell id="36SKS3vKtIYSdZwVMadg-11" value="Actor" style="shape=umlActor;verticalLabelPosition=bottom;verticalAlign=top;html=1;outlineConnect=0;" vertex="1" parent="1">
          <mxGeometry x="340" y="-315" width="30" height="60" as="geometry" />
        </mxCell>
        <mxCell id="36SKS3vKtIYSdZwVMadg-12" value="RAN" style="rounded=1;whiteSpace=wrap;html=1;" vertex="1" parent="1">
          <mxGeometry x="90" y="-320" width="80" height="20" as="geometry" />
        </mxCell>
        <mxCell id="36SKS3vKtIYSdZwVMadg-13" value="Core&amp;nbsp;" style="rounded=1;whiteSpace=wrap;html=1;" vertex="1" parent="1">
          <mxGeometry x="225" y="-350" width="80" height="20" as="geometry" />
        </mxCell>
        <mxCell id="36SKS3vKtIYSdZwVMadg-14" value="RAN-2" style="rounded=1;whiteSpace=wrap;html=1;" vertex="1" parent="1">
          <mxGeometry x="370" y="-420" width="80" height="20" as="geometry" />
        </mxCell>
        <mxCell id="36SKS3vKtIYSdZwVMadg-15" value="Core 2" style="rounded=1;whiteSpace=wrap;html=1;" vertex="1" parent="1">
          <mxGeometry x="270" y="-470" width="80" height="20" as="geometry" />
        </mxCell>
        <mxCell id="36SKS3vKtIYSdZwVMadg-17" value="" style="fontColor=#0066CC;verticalAlign=top;verticalLabelPosition=bottom;labelPosition=center;align=center;html=1;outlineConnect=0;fillColor=#CCCCCC;strokeColor=#6881B3;gradientColor=none;gradientDirection=north;strokeWidth=2;shape=mxgraph.networks.radio_tower;" vertex="1" parent="1">
          <mxGeometry x="680" y="-150" width="55" height="100" as="geometry" />
        </mxCell>
        <mxCell id="36SKS3vKtIYSdZwVMadg-18" value="" style="endArrow=classic;html=1;rounded=0;" edge="1" parent="1" source="36SKS3vKtIYSdZwVMadg-14" target="36SKS3vKtIYSdZwVMadg-17">
          <mxGeometry width="50" height="50" relative="1" as="geometry">
            <mxPoint x="340" y="-560" as="sourcePoint" />
            <mxPoint x="390" y="-610" as="targetPoint" />
          </mxGeometry>
        </mxCell>
        <mxCell id="36SKS3vKtIYSdZwVMadg-20" value="" style="endArrow=classic;html=1;rounded=0;" edge="1" parent="1" source="36SKS3vKtIYSdZwVMadg-15">
          <mxGeometry width="50" height="50" relative="1" as="geometry">
            <mxPoint x="446" y="-410" as="sourcePoint" />
            <mxPoint x="680" y="-499" as="targetPoint" />
          </mxGeometry>
        </mxCell>
        <mxCell id="36SKS3vKtIYSdZwVMadg-21" value="" style="endArrow=classic;html=1;rounded=0;" edge="1" parent="1">
          <mxGeometry width="50" height="50" relative="1" as="geometry">
            <mxPoint x="310" y="-340" as="sourcePoint" />
            <mxPoint x="690" y="-489" as="targetPoint" />
          </mxGeometry>
        </mxCell>
        <mxCell id="36SKS3vKtIYSdZwVMadg-22" value="AMF&amp;nbsp;&lt;br&gt;SMF&lt;div&gt;UPF --V D&lt;br&gt;PCF&amp;nbsp;&lt;/div&gt;" style="whiteSpace=wrap;html=1;" vertex="1" parent="1">
          <mxGeometry x="670" y="-860" width="120" height="60" as="geometry" />
        </mxCell>
        <mxCell id="36SKS3vKtIYSdZwVMadg-24" value="PCRF&amp;nbsp;" style="whiteSpace=wrap;html=1;" vertex="1" parent="1">
          <mxGeometry x="180" y="-604" width="60" height="20" as="geometry" />
        </mxCell>
        <mxCell id="36SKS3vKtIYSdZwVMadg-25" style="edgeStyle=orthogonalEdgeStyle;rounded=0;orthogonalLoop=1;jettySize=auto;html=1;" edge="1" parent="1" source="36SKS3vKtIYSdZwVMadg-26">
          <mxGeometry relative="1" as="geometry">
            <mxPoint x="710.5" y="-370" as="targetPoint" />
          </mxGeometry>
        </mxCell>
        <mxCell id="36SKS3vKtIYSdZwVMadg-26" value="SW Compan" style="rhombus;whiteSpace=wrap;html=1;" vertex="1" parent="1">
          <mxGeometry x="570.5" y="-410" width="80" height="80" as="geometry" />
        </mxCell>
        <mxCell id="36SKS3vKtIYSdZwVMadg-27" value="AMF" style="whiteSpace=wrap;html=1;" vertex="1" parent="1">
          <mxGeometry x="710.5" y="-380" width="60" height="20" as="geometry" />
        </mxCell>
        <mxCell id="36SKS3vKtIYSdZwVMadg-28" style="edgeStyle=orthogonalEdgeStyle;rounded=0;orthogonalLoop=1;jettySize=auto;html=1;" edge="1" parent="1" source="36SKS3vKtIYSdZwVMadg-29">
          <mxGeometry relative="1" as="geometry">
            <mxPoint x="150" y="-730" as="targetPoint" />
          </mxGeometry>
        </mxCell>
        <mxCell id="36SKS3vKtIYSdZwVMadg-29" value="SW Compan" style="rhombus;whiteSpace=wrap;html=1;" vertex="1" parent="1">
          <mxGeometry x="10" y="-770" width="80" height="80" as="geometry" />
        </mxCell>
        <mxCell id="36SKS3vKtIYSdZwVMadg-30" value="SGW&amp;nbsp;" style="whiteSpace=wrap;html=1;" vertex="1" parent="1">
          <mxGeometry x="150" y="-740" width="60" height="20" as="geometry" />
        </mxCell>
        <mxCell id="36SKS3vKtIYSdZwVMadg-32" style="edgeStyle=orthogonalEdgeStyle;rounded=0;orthogonalLoop=1;jettySize=auto;html=1;" edge="1" parent="1" source="36SKS3vKtIYSdZwVMadg-31">
          <mxGeometry relative="1" as="geometry">
            <mxPoint x="160" y="-190" as="targetPoint" />
          </mxGeometry>
        </mxCell>
        <mxCell id="36SKS3vKtIYSdZwVMadg-31" value="&lt;font style=&quot;font-size: 21px;&quot;&gt;2G&amp;nbsp;&lt;/font&gt;" style="rhombus;whiteSpace=wrap;html=1;" vertex="1" parent="1">
          <mxGeometry x="30" y="-230" width="80" height="80" as="geometry" />
        </mxCell>
        <mxCell id="36SKS3vKtIYSdZwVMadg-35" style="edgeStyle=orthogonalEdgeStyle;rounded=0;orthogonalLoop=1;jettySize=auto;html=1;entryX=0;entryY=0.5;entryDx=0;entryDy=0;" edge="1" parent="1" source="36SKS3vKtIYSdZwVMadg-33" target="36SKS3vKtIYSdZwVMadg-34">
          <mxGeometry relative="1" as="geometry" />
        </mxCell>
        <mxCell id="36SKS3vKtIYSdZwVMadg-33" value="&lt;span style=&quot;font-size: 21px;&quot;&gt;3G&lt;/span&gt;" style="rhombus;whiteSpace=wrap;html=1;" vertex="1" parent="1">
          <mxGeometry x="160" y="-230" width="80" height="80" as="geometry" />
        </mxCell>
        <mxCell id="36SKS3vKtIYSdZwVMadg-37" style="edgeStyle=orthogonalEdgeStyle;rounded=0;orthogonalLoop=1;jettySize=auto;html=1;" edge="1" parent="1" source="36SKS3vKtIYSdZwVMadg-34" target="36SKS3vKtIYSdZwVMadg-36">
          <mxGeometry relative="1" as="geometry" />
        </mxCell>
        <mxCell id="36SKS3vKtIYSdZwVMadg-34" value="&lt;span style=&quot;font-size: 21px;&quot;&gt;4G&lt;/span&gt;" style="rhombus;whiteSpace=wrap;html=1;" vertex="1" parent="1">
          <mxGeometry x="270" y="-230" width="80" height="80" as="geometry" />
        </mxCell>
        <mxCell id="36SKS3vKtIYSdZwVMadg-36" value="&lt;span style=&quot;font-size: 21px;&quot;&gt;5G&lt;/span&gt;" style="rhombus;whiteSpace=wrap;html=1;" vertex="1" parent="1">
          <mxGeometry x="384" y="-230" width="80" height="80" as="geometry" />
        </mxCell>
        <mxCell id="36SKS3vKtIYSdZwVMadg-39" style="edgeStyle=orthogonalEdgeStyle;rounded=0;orthogonalLoop=1;jettySize=auto;html=1;entryX=0.5;entryY=0;entryDx=0;entryDy=0;" edge="1" parent="1" source="36SKS3vKtIYSdZwVMadg-38" target="36SKS3vKtIYSdZwVMadg-31">
          <mxGeometry relative="1" as="geometry" />
        </mxCell>
        <mxCell id="36SKS3vKtIYSdZwVMadg-38" value="ABC" style="whiteSpace=wrap;html=1;" vertex="1" parent="1">
          <mxGeometry x="30" y="-300" width="80" height="30" as="geometry" />
        </mxCell>
        <mxCell id="36SKS3vKtIYSdZwVMadg-46" value="" style="edgeStyle=orthogonalEdgeStyle;rounded=0;orthogonalLoop=1;jettySize=auto;html=1;" edge="1" parent="1" source="36SKS3vKtIYSdZwVMadg-40" target="36SKS3vKtIYSdZwVMadg-31">
          <mxGeometry relative="1" as="geometry" />
        </mxCell>
        <mxCell id="36SKS3vKtIYSdZwVMadg-40" value="Core" style="shape=cylinder3;whiteSpace=wrap;html=1;boundedLbl=1;backgroundOutline=1;size=15;" vertex="1" parent="1">
          <mxGeometry x="30" y="-100" width="60" height="80" as="geometry" />
        </mxCell>
        <mxCell id="36SKS3vKtIYSdZwVMadg-43" style="edgeStyle=orthogonalEdgeStyle;rounded=0;orthogonalLoop=1;jettySize=auto;html=1;" edge="1" parent="1" source="36SKS3vKtIYSdZwVMadg-42" target="36SKS3vKtIYSdZwVMadg-40">
          <mxGeometry relative="1" as="geometry" />
        </mxCell>
        <mxCell id="36SKS3vKtIYSdZwVMadg-48" value="" style="edgeStyle=orthogonalEdgeStyle;rounded=0;orthogonalLoop=1;jettySize=auto;html=1;" edge="1" parent="1" source="36SKS3vKtIYSdZwVMadg-42">
          <mxGeometry relative="1" as="geometry">
            <mxPoint x="70" y="-150" as="targetPoint" />
          </mxGeometry>
        </mxCell>
        <mxCell id="36SKS3vKtIYSdZwVMadg-42" value="RAN" style="shape=cylinder3;whiteSpace=wrap;html=1;boundedLbl=1;backgroundOutline=1;size=15;" vertex="1" parent="1">
          <mxGeometry x="160" y="-100" width="70" height="80" as="geometry" />
        </mxCell>
        <mxCell id="36SKS3vKtIYSdZwVMadg-45" style="edgeStyle=orthogonalEdgeStyle;rounded=0;orthogonalLoop=1;jettySize=auto;html=1;entryX=1;entryY=0.5;entryDx=0;entryDy=0;entryPerimeter=0;" edge="1" parent="1" source="36SKS3vKtIYSdZwVMadg-44" target="36SKS3vKtIYSdZwVMadg-42">
          <mxGeometry relative="1" as="geometry">
            <mxPoint x="280" y="-60" as="targetPoint" />
          </mxGeometry>
        </mxCell>
        <mxCell id="36SKS3vKtIYSdZwVMadg-50" style="edgeStyle=orthogonalEdgeStyle;rounded=0;orthogonalLoop=1;jettySize=auto;html=1;" edge="1" parent="1" source="36SKS3vKtIYSdZwVMadg-44">
          <mxGeometry relative="1" as="geometry">
            <mxPoint x="130" y="-190" as="targetPoint" />
          </mxGeometry>
        </mxCell>
        <mxCell id="36SKS3vKtIYSdZwVMadg-44" value="Site&amp;nbsp;" style="shape=cylinder3;whiteSpace=wrap;html=1;boundedLbl=1;backgroundOutline=1;size=15;" vertex="1" parent="1">
          <mxGeometry x="305" y="-100" width="60" height="80" as="geometry" />
        </mxCell>
      </root>
    </mxGraphModel>
  </diagram>
</mxfile>
